<?xml version="1.0" encoding="utf-8"?>
<!-- Generator: Adobe Illustrator 27.0.0, SVG Export Plug-In . SVG Version: 6.00 Build 0)  -->
<svg version="1.1" id="Layer_1" xmlns="http://www.w3.org/2000/svg" xmlns:xlink="http://www.w3.org/1999/xlink" x="0px" y="0px"
	 viewBox="0 0 512 512" style="enable-background:new 0 0 512 512;" xml:space="preserve">
<style type="text/css">
	.st0{fill:#FFC425;}
	.st1{fill:#FFFFFF;}
</style>
<g>
	<path d="M492.64,116.54c-9.87-6.52-17.5-14.89-20.67-16.76c-3.17-1.86-7.63-4.65-18.8-4.65c0,0-5.96-8.94-9.68-13.03
		c-3.72-4.1-9.68-8.94-18.43-12.29c-8.56-3.35-20.85-9.31-28.11-16.01c-7.26-6.52-11.54-13.22-29.6-13.41c0,0,6.33,4.28,10.05,9.31
		c3.72,5.03,8.19,13.78,12.66,18.99c4.47,5.03,10.61,10.61,16.57,14.89c6.14,4.28,10.98,9.12,9.68,11.36c0,0-20.48-2.98-39.1,1.3
		c0,0,8.38,25.32,33.51,32.95c0,0,0.93,0.19-0.93,2.98c-1.68,2.79-22.53,32.77-50.46,50.83c-27.93,18.06-48.59,29.42-92.9,38.91
		c0,0-46.17,7.07-56.6,9.87c-10.43,2.79-17.87,5.96-29.98,19.55c0,0-3.54,0.93-10.98-1.3c-7.45-2.05-11.17-1.86-20.48-0.37
		c-9.31,1.49-15.45,3.35-28.86,1.12c-13.41-2.42-22.53-6.52-24.76-7.82c-1.68-1.3,2.79,10.61,5.96,15.08
		c3.17,4.47,10.05,13.59,22.16,14.71c12.1,1.12,19.55-3.35,24.39-4.65c4.84-1.3,9.12-2.79,15.45-0.56c5.03,1.68,6.33,1.68,5.21,4.1
		c-1.12,2.42-3.54,12.47-4.65,24.58c-1.12,11.92-1.86,20.11-14.52,27c-12.66,7.07-30.35,12.29-43.01,8.75
		c0,0-9.31,16.57-18.43,23.83s-24.76,18.43-35.56,23.27c-10.98,4.65-13.41,5.96-16.01,5.4l-4.28,5.96l-9.5-0.19L0,422.43
		c0,0,9.87,3.91,22.53-0.37s53.06-29.79,70-40.96c16.94-10.98,37.05-24.02,56.04-28.67c20.67-3.35,51.39-12.85,66.09-18.8
		c14.71-5.96,47.1-24.76,61.81-35.19c0,0,2.42-2.05,6.52-1.12c5.96,0.56,14.15,2.42,17.31,1.86c3.17,0.19,31.28-11.92,38.35-15.64
		c7.26-3.54,40.03-21.97,45.8-24.76c5.77-2.79,9.31-4.47,7.82-2.05c-1.49,2.42-13.96,15.45-20.29,20.29
		c-6.33,4.65-11.36,10.05-14.15,7.82c-2.79-2.05-1.49-3.72-8.94,0.56c-5.77,3.35-32.02,18.25-32.02,18.25s21.04,8.75,35.93,7.07
		c14.71-1.68,21.97-6.33,30.72-12.29c8.56-5.96,23.27-18.99,27.18-23.65c3.72-4.65,11.73-14.89,16.94-22.34
		c5.03-7.63,18.99-33.7,20.11-36.49c0,0-0.37,0-32.95,0c0,0,17.13-24.02,22.34-34.07c5.21-10.05,15.27-31.28,15.83-33.7
		c0.56-2.42,1.12-1.49,7.45-1.12c6.33,0.37,21.04-0.56,26.44-1.68c6.33-1.12,15.45-3.54,19.74-4.47c0,0,3.91-2.79,5.4-5.77v-8.94
		C512,126.4,502.5,123.24,492.64,116.54"/>
	<path class="st0" d="M400.66,107.23c0,0,26.25,1.12,27.18,1.86c0.93,0.74,7.45,12.1,7.45,12.1S415.56,121.38,400.66,107.23
		 M449.82,109.27L449.82,109.27c-2.42-2.98-14.89-17.69-14.89-17.69c-3.91-5.77-12.1-14.52-13.59-15.83
		c-0.74-0.56-1.68-0.93-2.79-1.49c-9.87-4.65-17.87-10.43-20.67-12.66c-2.42-1.86-13.59-11.73-16.76-15.08
		c2.98,4.28,14.71,21.97,28.67,31.09c16.57,11.17,19.18,20.29,19.74,26.07c0,0-19.18-6.89-41.7-2.05c0,0-0.19,11.92,33.33,26.25
		c0,0-17.87,30.91-41.15,50.27c-23.27,19.36-46.36,33.89-83.6,44.87c-37.24,9.31-64.05,11.54-74.47,13.78
		c-10.43,2.42-26.44,5.4-36.86,21.97c0,0-4.1,0.56-13.96-1.68c-9.5-2.23-14.89-3.72-26.44-0.37c-0.37,0.19-5.4,2.98-11.73,5.96
		c-6.14,3.17-11.17,3.35-11.36,3.35c2.98,0.93,9.31,1.86,16.76-0.37c10.61-3.35,9.68-4.65,17.13-4.65c7.45,0,8.56-0.37,23.46,6.33
		c0,0-5.03,10.43-6.7,24.02c-1.68,13.59-0.56,27.18-17.5,37.42s-39.28,11.54-44.5,10.8c0,0-6.33,16.38-34.44,32.95
		c-28.11,16.57-33.7,16.01-35.37,16.94c-1.68,1.12-3.17,5.77-4.47,6.89l-10.43-0.56c0,0-13.41,17.87-13.03,19.18
		c0.37,1.3,10.05,2.42,32.4-10.98c22.34-13.41,42.26-28.3,55.11-35.75c12.85-7.45,28.11-15.83,37.24-19.18
		c9.31-3.35,34.44-8.19,43.57-11.36c0,0,10.8-5.03,21.04-22.16c0,0,9.87-24.76,14.89-36.31c5.03-11.54,8.38-12.1,19.55-11.54
		c11.17,0.56,28.49-2.23,49.34-6.89c20.85-4.65,43.57-19.55,47.1-21.97c3.54-2.42,6.14-2.79,7.26-2.79c1.12,0,5.59,0.93,5.59,0.93
		l36.31,7.63l-2.79,0.19c0.56,0,0.93,0,1.49,0l24.95-0.93h-0.19h0.19c0,0-6.89,28.49-46.36,50.08c0,0-3.72-3.17-5.21-3.91
		c-1.49,0.19-21.6,11.17-20.11,11.92c1.49,0.93,18.43,5.96,33.51-1.12c15.27-7.07,35.56-22.16,48.78-42.82
		c13.03-20.67,16.57-26.07,21.04-35.75c0,0-19.92,0.56-33.51,0.19c-3.54,0.19-5.96,0.19-7.63,0.19c0.37-0.37,0.93-0.74,1.68-1.49
		c-1.12,0.93-1.68,1.49-1.68,1.49h-1.3c0,0-13.59-0.74-14.15-8.75c-0.56-7.82,8.94-13.59,20.85-27
		c12.1-13.41,33.33-43.75,33.33-43.75s-1.3,2.05-3.35,5.59c6.89-11.36,9.87-18.8,9.87-18.8c3.17-8.19,7.26-9.12,10.05-9.5
		c2.61-0.37,6.7-0.19,7.63-0.19L449.82,109.27z"/>
	<path class="st1" d="M132.93,262.5c6.52-3.17,11.73-5.96,11.73-5.96l-5.59,0.93c0,0-16.57,3.54-34.44-4.84c0,0,0.93,4.1,5.96,8.19
		c2.42,2.05,6.14,3.91,11.17,5.4C121.58,265.85,126.79,265.67,132.93,262.5 M405.5,244.07L380.56,245c-0.56,0-0.93,0-1.49,0
		l-31.46,2.61c-51.76,30.16-102.59,30.53-113.2,31.09c-10.61,0.56-11.92,5.03-13.22,6.33c-0.37,0.37-2.42,3.54-5.03,7.63
		c-2.98,5.03-6.7,10.98-11.17,17.69c-1.86,3.17-3.17,5.21-3.17,5.21c-10.24,17.13-21.04,22.16-21.04,22.16
		c26.62-7.26,56.6-23.65,64.98-28.49c8.38-4.84,26.81-18.8,28.3-19.74c1.49-1.12,23.83,1.86,27.55,1.86
		c3.72,0,44.13-20.48,58.46-28.11C374.6,255.43,405.5,244.07,405.5,244.07 M397.68,221.36L397.68,221.36l-0.19,0.19L397.68,221.36
		 M507.35,128.45c-2.98-1.3-14.34-6.14-21.41-11.17c-8.19-5.96-12.29-11.92-19.36-14.34c-7.26-2.42-14.89-2.05-16.01-1.86
		c0,0-10.24-18.8-29.42-25.69v0.19h0.19c1.3,1.3,9.5,10.05,13.59,15.83c0,0,12.47,14.71,15.08,17.69c0.37,0,4.1-0.37,7.45,0
		c3.54,0.37,8.19,4.47,14.34,9.31c5.77,4.65,18.62,10.05,19.92,10.61c-1.3,0.56-2.98,0.56-5.03,0.19
		c-8.75-1.12-21.41-8.38-23.27-8.56c-2.05-0.37-3.91-0.19-4.47-0.19h-0.19c-0.74,0-5.03,0-7.63,0.19c-2.79,0.37-6.7,1.3-10.05,9.5
		c0,0-3.54,8.38-11.17,20.85c-4.47,7.45-16.38,26.81-25.32,37.61c-9.12,10.61-16.94,22.9-15.08,28.3c1.86,5.59,5.03,5.77,5.03,5.77
		h1.12h0.19c0,0,0.56-0.56,1.68-1.49c6.33-5.77,30.35-29.23,51.76-77.82c0,0,0.37-0.93-6.14-11.36l0.19-0.37
		c2.23,2.23,8.01,7.63,12.66,8.75c0.37,0.19,0.93,0.19,1.3,0.19c1.3,0.37,3.54,0.93,6.89,1.12l0.19-0.19l-0.37,0.19
		c4.1,0.37,9.87,0.56,16.57-0.56c14.89-2.23,22.9-5.03,22.9-5.03s-1.68-2.98-6.33-5.03C503.62,133.29,507.35,129.2,507.35,128.45"/>
	<path d="M87.49,436.06c-1.16-0.94-2.19-1.74-3.09-2.38c-0.9-0.64-1.78-1.16-2.64-1.55c-0.82-0.39-1.63-0.67-2.45-0.84
		c-0.82-0.17-1.67-0.26-2.58-0.26c-1.63,0-2.92,0.36-3.86,1.09c-0.94,0.69-1.42,1.63-1.42,2.83c0,0.64,0.09,1.22,0.26,1.74
		c0.17,0.47,0.52,1.03,1.03,1.67c0.56,0.6,1.33,1.33,2.32,2.19c0.99,0.86,2.32,1.95,3.99,3.28c1.33,1.07,2.45,2.08,3.35,3.03
		c0.94,0.9,1.67,1.82,2.19,2.77c0.56,0.94,0.94,1.93,1.16,2.96c0.26,0.99,0.39,2.08,0.39,3.28c0,2.28-0.45,4.38-1.35,6.31
		c-0.9,1.89-2.17,3.54-3.8,4.96c-1.59,1.37-3.5,2.47-5.73,3.28c-2.23,0.77-4.66,1.16-7.28,1.16c-4.94,0-9.23-0.86-12.88-2.58
		l-1.22-9.21c1.42,1.07,2.71,1.98,3.86,2.71c1.16,0.73,2.25,1.33,3.28,1.8c1.03,0.43,2.04,0.75,3.03,0.97
		c0.99,0.21,2,0.32,3.03,0.32c2.06,0,3.71-0.49,4.96-1.48c1.25-1.03,1.87-2.36,1.87-3.99c0-0.69-0.09-1.31-0.26-1.87
		c-0.17-0.56-0.52-1.16-1.03-1.8c-0.47-0.64-1.18-1.37-2.13-2.19c-0.9-0.86-2.1-1.91-3.61-3.16c-1.42-1.16-2.6-2.23-3.54-3.22
		c-0.94-0.99-1.72-1.95-2.32-2.9c-0.56-0.94-0.97-1.91-1.22-2.9c-0.21-0.99-0.32-2.04-0.32-3.16c0-2.1,0.41-4.01,1.22-5.73
		c0.86-1.72,2.06-3.18,3.61-4.38c1.55-1.25,3.41-2.19,5.6-2.83c2.23-0.64,4.7-0.97,7.41-0.97c2.02,0,3.84,0.17,5.47,0.52
		c1.67,0.34,3.41,0.88,5.22,1.61L87.49,436.06z"/>
	<path d="M104.44,460.86c-0.26,1.16-0.47,2.23-0.64,3.22c-0.13,0.99-0.19,1.78-0.19,2.38c0,0.73,0.11,1.37,0.32,1.93
		c0.26,0.56,0.75,1.33,1.48,2.32H86.85c0.77-0.6,1.44-1.18,2-1.74c0.56-0.6,1.03-1.27,1.42-2c0.39-0.73,0.73-1.57,1.03-2.51
		c0.3-0.99,0.6-2.19,0.9-3.61l5.54-25.05c0.56-2.49,0.84-4.36,0.84-5.6c0-0.69-0.13-1.29-0.39-1.8c-0.21-0.56-0.69-1.37-1.42-2.45
		h16.04c1.98,0,3.65,0.04,5.02,0.13c1.42,0.04,2.64,0.15,3.67,0.32c1.03,0.13,1.91,0.34,2.64,0.64c0.77,0.26,1.48,0.58,2.13,0.97
		c1.2,0.73,2.13,1.8,2.77,3.22c0.69,1.42,1.03,3.03,1.03,4.83c0,2.19-0.39,4.21-1.16,6.05c-0.73,1.8-1.78,3.37-3.16,4.7
		c-1.37,1.29-3.03,2.3-4.96,3.03c-1.89,0.73-3.99,1.09-6.31,1.09c-1.37,0-2.58-0.09-3.61-0.26c-1.03-0.21-2.17-0.58-3.41-1.09
		c1.37-0.09,2.47-0.28,3.28-0.58c0.86-0.3,1.63-0.77,2.32-1.42c1.16-1.16,2.08-2.7,2.77-4.64c0.69-1.93,1.03-3.93,1.03-5.99
		c0-3.78-1.61-5.67-4.83-5.67h-1.09L104.44,460.86z"/>
	<path d="M146.64,446.88c0.3,0.09,0.54,0.15,0.71,0.19c0.21,0.04,0.49,0.06,0.84,0.06c1.2,0,2.3-0.26,3.28-0.77
		c1.03-0.56,1.91-1.31,2.64-2.25c0.73-0.99,1.31-2.13,1.74-3.41c0.43-1.33,0.64-2.77,0.64-4.32c0-3.18-1.95-4.77-5.86-4.77h-0.58
		L146.64,446.88z M126.23,470.71c0.77-0.6,1.44-1.18,2-1.74c0.56-0.6,1.03-1.27,1.42-2c0.39-0.73,0.73-1.57,1.03-2.51
		c0.3-0.99,0.6-2.19,0.9-3.61l5.54-25.05c0.56-2.4,0.84-4.27,0.84-5.6c0-0.69-0.13-1.29-0.39-1.8c-0.21-0.56-0.69-1.37-1.42-2.45
		h17.52c2.88,0,5.22,0.13,7.02,0.39c1.8,0.26,3.26,0.67,4.38,1.22c1.37,0.73,2.47,1.89,3.28,3.48c0.82,1.55,1.22,3.28,1.22,5.22
		c0,1.89-0.36,3.74-1.09,5.54c-0.69,1.76-1.59,3.18-2.71,4.25c-0.99,0.9-2.06,1.55-3.22,1.93c-1.16,0.39-2.71,0.6-4.64,0.64
		l2.38,5.15c1.37,2.96,2.53,5.41,3.48,7.34c0.99,1.93,1.85,3.54,2.58,4.83c0.77,1.25,1.44,2.23,2,2.96c0.6,0.69,1.22,1.29,1.87,1.8
		c-0.99,0.13-1.78,0.21-2.38,0.26c-0.6,0.04-1.12,0.09-1.55,0.13c-0.43,0.04-0.84,0.06-1.22,0.06c-0.34,0-0.79,0-1.35,0
		c-2.19,0-4.01-0.17-5.47-0.52c-1.42-0.39-2.6-1.01-3.54-1.87c-0.43-0.39-0.84-0.84-1.22-1.35c-0.39-0.52-0.79-1.16-1.22-1.93
		c-0.39-0.77-0.82-1.72-1.29-2.83c-0.47-1.16-1.03-2.55-1.67-4.19l-3.28-8.57l-2.45,10.95c-0.3,1.42-0.52,2.55-0.64,3.41
		c-0.13,0.82-0.19,1.55-0.19,2.19c0,0.73,0.11,1.37,0.32,1.93c0.26,0.56,0.75,1.33,1.48,2.32H126.23z"/>
	<path d="M169.88,470.71c0.77-0.6,1.42-1.18,1.93-1.74c0.56-0.6,1.03-1.27,1.42-2c0.43-0.73,0.79-1.57,1.09-2.51
		c0.3-0.99,0.6-2.19,0.9-3.61l5.54-25.05c0.56-2.4,0.84-4.27,0.84-5.6c0-0.69-0.13-1.29-0.39-1.8c-0.21-0.56-0.69-1.37-1.42-2.45
		h18.55c-0.77,0.6-1.44,1.2-2,1.8c-0.56,0.56-1.03,1.2-1.42,1.93c-0.39,0.73-0.73,1.59-1.03,2.58c-0.3,0.94-0.6,2.13-0.9,3.54
		l-5.54,25.05c-0.3,1.2-0.52,2.3-0.64,3.28c-0.13,0.94-0.19,1.72-0.19,2.32c0,0.73,0.11,1.37,0.32,1.93
		c0.26,0.52,0.75,1.29,1.48,2.32L169.88,470.71z"/>
	<path d="M234.77,470.71c-0.69,0.17-1.33,0.28-1.93,0.32c-0.6,0.09-1.29,0.13-2.06,0.13c-1.85,0-3.43-0.17-4.77-0.52
		c-1.33-0.34-2.53-0.99-3.61-1.93c-1.07-0.99-2.1-2.32-3.09-3.99c-0.94-1.72-1.98-3.91-3.09-6.57l-7.47-17.58l-4.51,20.29
		c-0.3,1.37-0.52,2.51-0.64,3.41c-0.13,0.86-0.19,1.59-0.19,2.19c0,0.73,0.11,1.37,0.32,1.93c0.26,0.56,0.75,1.33,1.48,2.32h-13.14
		c0.77-0.6,1.42-1.18,1.93-1.74c0.56-0.6,1.03-1.27,1.42-2c0.43-0.73,0.79-1.57,1.09-2.51c0.3-0.99,0.6-2.19,0.9-3.61l5.54-25.05
		c0.56-2.4,0.84-4.27,0.84-5.6c0-0.77-0.15-1.48-0.45-2.13c-0.26-0.64-0.75-1.35-1.48-2.13h14.68c0.17,0.6,0.43,1.42,0.77,2.45
		c0.34,1.03,0.75,2.13,1.22,3.28l9.73,23.51l4.32-19.39c0.56-2.53,0.84-4.4,0.84-5.6c0-0.73-0.13-1.35-0.39-1.87
		c-0.21-0.56-0.69-1.35-1.42-2.38h13.14c-0.77,0.6-1.44,1.2-2,1.8c-0.52,0.56-0.99,1.2-1.42,1.93c-0.39,0.73-0.73,1.59-1.03,2.58
		c-0.3,0.94-0.6,2.13-0.9,3.54l-6.76,30.59L234.77,470.71z"/>
	<path d="M282.49,436.96c-1.33-1.85-2.9-3.22-4.7-4.12c-1.8-0.9-3.93-1.35-6.38-1.35c-2.32,0-4.44,0.47-6.38,1.42
		c-1.93,0.94-3.61,2.3-5.02,4.06c-1.37,1.72-2.45,3.8-3.22,6.25c-0.73,2.4-1.09,5.09-1.09,8.05c0,4.42,0.9,7.9,2.71,10.43
		c1.85,2.49,4.38,3.74,7.6,3.74c0.34,0,0.64,0,0.9,0c0.26-0.04,0.56-0.11,0.9-0.19l1.61-7.15c0.26-1.29,0.45-2.28,0.58-2.96
		c0.17-0.69,0.28-1.22,0.32-1.61c0.09-0.43,0.13-0.75,0.13-0.97c0.04-0.26,0.06-0.56,0.06-0.9c0-0.73-0.17-1.37-0.52-1.93
		c-0.3-0.6-0.88-1.29-1.74-2.06h16.62c-0.39,0.64-0.71,1.18-0.97,1.61c-0.21,0.43-0.41,0.9-0.58,1.42
		c-0.17,0.52-0.36,1.16-0.58,1.93c-0.17,0.73-0.39,1.72-0.64,2.96l-1.42,6.31c-0.52,2.4-0.77,4.29-0.77,5.67
		c0,0.47,0.09,1.05,0.26,1.74c-2.1,0.73-4.53,1.29-7.28,1.67c-2.75,0.43-5.58,0.64-8.5,0.64c-6.91,0-12.26-1.7-16.04-5.09
		c-3.78-3.39-5.67-8.22-5.67-14.49c0-4.42,0.94-8.54,2.83-12.37c1.93-3.86,4.59-7.02,7.99-9.47c4.81-3.43,10.78-5.15,17.9-5.15
		c2.36,0,4.51,0.15,6.44,0.45c1.93,0.3,3.93,0.79,5.99,1.48L282.49,436.96z"/>
	<path d="M300.52,464.14c0.69,0.21,1.27,0.36,1.74,0.45c0.47,0.04,1.03,0.06,1.67,0.06c2.53,0,4.55-0.71,6.05-2.13
		c1.55-1.46,2.32-3.41,2.32-5.86c0-2.1-0.67-3.76-2-4.96c-1.33-1.25-3.16-1.87-5.47-1.87c-0.21,0-0.41,0-0.58,0
		c-0.17,0-0.39,0.04-0.64,0.13L300.52,464.14z M304.9,444.05c0.34,0.04,0.64,0.09,0.9,0.13c0.3,0,0.56,0,0.77,0
		c2.19,0,3.95-0.79,5.28-2.38c1.37-1.59,2.06-3.63,2.06-6.12c0-1.55-0.43-2.64-1.29-3.28c-0.86-0.69-2.25-1.03-4.19-1.03h-0.71
		L304.9,444.05z M310.7,425.95c1.8,0,3.22,0.02,4.25,0.06c1.03,0,1.87,0.02,2.51,0.06c0.69,0.04,1.27,0.11,1.74,0.19
		c0.47,0.09,1.01,0.21,1.61,0.39c1.8,0.52,3.2,1.48,4.19,2.9c1.03,1.42,1.55,3.09,1.55,5.02c0,1.8-0.34,3.56-1.03,5.28
		c-0.69,1.67-1.59,3.05-2.71,4.12c-0.86,0.86-1.8,1.5-2.83,1.93c-1.03,0.43-2.38,0.79-4.06,1.09c6.01,0.64,9.02,3.93,9.02,9.85
		c0,2.66-0.64,5.09-1.93,7.28c-1.25,2.15-2.92,3.71-5.02,4.7c-0.9,0.43-1.74,0.77-2.51,1.03c-0.77,0.21-1.76,0.39-2.96,0.52
		c-1.16,0.13-2.64,0.21-4.44,0.26c-1.76,0.04-4.08,0.06-6.96,0.06h-17.26c0.77-0.6,1.44-1.18,2-1.74c0.56-0.6,1.03-1.27,1.42-2
		c0.39-0.73,0.73-1.57,1.03-2.51c0.3-0.99,0.6-2.19,0.9-3.61l5.54-25.12c0.56-2.4,0.84-4.25,0.84-5.54c0-0.69-0.13-1.29-0.39-1.8
		c-0.21-0.56-0.69-1.37-1.42-2.45L310.7,425.95z"/>
	<path d="M355.35,431.04c-3.22,0-5.99,2.64-8.31,7.92c-0.47,1.12-0.9,2.34-1.29,3.67c-0.39,1.33-0.73,2.73-1.03,4.19
		c-0.26,1.46-0.47,2.94-0.64,4.44c-0.13,1.46-0.19,2.88-0.19,4.25c0,3.13,0.54,5.6,1.61,7.41c1.12,1.8,2.64,2.71,4.57,2.71
		c3.56,0,6.42-2.81,8.57-8.44c0.43-1.07,0.82-2.25,1.16-3.54c0.34-1.33,0.64-2.71,0.9-4.12c0.26-1.42,0.45-2.83,0.58-4.25
		c0.17-1.46,0.26-2.83,0.26-4.12C361.53,434.41,359.47,431.04,355.35,431.04z M356.76,425.05c5.84,0,10.35,1.63,13.53,4.89
		c2.83,2.83,4.25,7.21,4.25,13.14c0,4.25-0.62,8.14-1.87,11.66c-1.25,3.52-3.01,6.53-5.28,9.02c-2.23,2.49-4.94,4.42-8.12,5.8
		c-3.13,1.37-6.63,2.06-10.5,2.06c-5.8,0-10.24-1.55-13.33-4.64c-3.05-3.09-4.57-7.58-4.57-13.46c0-2.02,0.17-4.01,0.52-5.99
		c0.34-1.98,0.82-3.86,1.42-5.67c0.64-1.8,1.42-3.5,2.32-5.09s1.93-3.03,3.09-4.32C342.64,427.52,348.82,425.05,356.76,425.05
		L356.76,425.05z"/>
	<path d="M423.52,425.95c-0.43,0.39-0.86,0.77-1.29,1.16c-0.39,0.34-0.77,0.69-1.16,1.03l-2.32,2.19l-15.65,14.75l2.77,5.09
		c0.9,1.63,1.8,3.28,2.7,4.96c0.94,1.63,1.87,3.28,2.77,4.96c1.76,3.22,3.28,5.67,4.57,7.34c1.29,1.63,2.53,2.71,3.74,3.22
		c-0.99,0.21-1.85,0.36-2.58,0.45c-0.69,0.13-1.33,0.24-1.93,0.32c-0.6,0.09-1.18,0.13-1.74,0.13c-0.56,0.04-1.18,0.06-1.87,0.06
		c-4.29,0-7.26-0.82-8.89-2.45c-0.34-0.3-0.62-0.58-0.84-0.84c-0.17-0.26-0.43-0.67-0.77-1.22c-0.3-0.56-0.73-1.35-1.29-2.38
		c-0.52-1.07-1.25-2.58-2.19-4.51l-4.64-9.27l-2.19,9.92c-0.3,1.2-0.52,2.3-0.64,3.28c-0.13,0.94-0.19,1.72-0.19,2.32
		c0,0.73,0.11,1.37,0.32,1.93c0.26,0.52,0.75,1.29,1.48,2.32h-18.55c0.77-0.6,1.42-1.18,1.93-1.74c0.56-0.6,1.03-1.27,1.42-2
		c0.43-0.73,0.79-1.57,1.09-2.51c0.3-0.99,0.6-2.19,0.9-3.61l5.54-25.05c0.56-2.4,0.84-4.27,0.84-5.6c0-0.69-0.13-1.29-0.39-1.8
		c-0.21-0.56-0.69-1.37-1.42-2.45h18.55c-0.77,0.6-1.44,1.2-2,1.8c-0.56,0.56-1.03,1.2-1.42,1.93c-0.39,0.73-0.73,1.59-1.03,2.58
		c-0.3,0.94-0.6,2.13-0.9,3.54l-2.06,9.15l13.14-13.14c0.86-0.86,1.5-1.52,1.93-2c0.47-0.47,0.82-0.84,1.03-1.09
		c0.21-0.26,0.34-0.45,0.39-0.58c0.04-0.13,0.06-0.3,0.06-0.52c0-0.47-0.32-1.03-0.97-1.67L423.52,425.95z"/>
	<path d="M454.68,436.06c-1.16-0.94-2.19-1.74-3.09-2.38c-0.9-0.64-1.78-1.16-2.64-1.55c-0.82-0.39-1.63-0.67-2.45-0.84
		c-0.82-0.17-1.67-0.26-2.58-0.26c-1.63,0-2.92,0.36-3.86,1.09c-0.94,0.69-1.42,1.63-1.42,2.83c0,0.64,0.09,1.22,0.26,1.74
		c0.17,0.47,0.52,1.03,1.03,1.67c0.56,0.6,1.33,1.33,2.32,2.19c0.99,0.86,2.32,1.95,3.99,3.28c1.33,1.07,2.45,2.08,3.35,3.03
		c0.94,0.9,1.67,1.82,2.19,2.77c0.56,0.94,0.94,1.93,1.16,2.96c0.26,0.99,0.39,2.08,0.39,3.28c0,2.28-0.45,4.38-1.35,6.31
		c-0.9,1.89-2.17,3.54-3.8,4.96c-1.59,1.37-3.5,2.47-5.73,3.28c-2.23,0.77-4.66,1.16-7.28,1.16c-4.94,0-9.23-0.86-12.88-2.58
		l-1.22-9.21c1.42,1.07,2.71,1.98,3.86,2.71c1.16,0.73,2.25,1.33,3.28,1.8c1.03,0.43,2.04,0.75,3.03,0.97
		c0.99,0.21,2,0.32,3.03,0.32c2.06,0,3.71-0.49,4.96-1.48c1.25-1.03,1.87-2.36,1.87-3.99c0-0.69-0.09-1.31-0.26-1.87
		c-0.17-0.56-0.52-1.16-1.03-1.8c-0.47-0.64-1.18-1.37-2.13-2.19c-0.9-0.86-2.1-1.91-3.61-3.16c-1.42-1.16-2.6-2.23-3.54-3.22
		c-0.94-0.99-1.72-1.95-2.32-2.9c-0.56-0.94-0.97-1.91-1.22-2.9c-0.21-0.99-0.32-2.04-0.32-3.16c0-2.1,0.41-4.01,1.22-5.73
		c0.86-1.72,2.06-3.18,3.61-4.38c1.55-1.25,3.41-2.19,5.6-2.83c2.23-0.64,4.7-0.97,7.41-0.97c2.02,0,3.84,0.17,5.47,0.52
		c1.67,0.34,3.41,0.88,5.22,1.61L454.68,436.06z"/>
</g>
</svg>
